<?xml version="1.0" encoding="utf-8"?>
<!-- Generator: Adobe Illustrator 24.0.3, SVG Export Plug-In . SVG Version: 6.00 Build 0)  -->
<svg version="1.1" id="logo" xmlns="http://www.w3.org/2000/svg" xmlns:xlink="http://www.w3.org/1999/xlink" x="0px" y="0px"
	 viewBox="0 0 1024 201.6" style="enable-background:new 0 0 1024 201.6;" xml:space="preserve">
<style type="text/css">
	.st0{fill:#EF671F;}
	.st1{fill:#3F3F3F;}
</style>
<path class="st0" d="M77.9,142.6c-7.4,3.1-15.9-0.4-18.9-7.8c-3.1-7.4,0.4-15.9,7.8-18.9l97-40.2c6.1,14.8-0.9,31.7-15.7,37.8
	L77.9,142.6L77.9,142.6z"/>
<path class="st0" d="M179.5,37.8c14.8-6.1,21.8-23.1,15.7-37.8L44.7,62.3C33.3,67,23,74.7,15,85.1c-24.3,31.7-18.4,77.2,13.4,101.5
	c31.6,24.3,77,18.2,101.5-13.4c4.9-6.4,3.7-15.4-2.7-20.3s-15.4-3.6-20.3,2.7c-14.9,19.1-42,22.5-60.9,8c-19-14.6-22.6-41.9-8-60.9
	c4.8-6.3,11-10.9,17.8-13.7L179.5,37.8L179.5,37.8z"/>
<g>
	<path class="st1" d="M595.4,54.8c-1.8,0-4.2,1.2-5.3,2.7L576,76.9c-1.1,1.5-0.5,2.7,1.4,2.7H632c1.8,0,4.2-1.2,5.3-2.7l14.2-19.5
		c1.1-1.5,0.5-2.7-1.4-2.7H595.4z M797.5,54.8c-1.8,0-4.2,1.2-5.3,2.7l-92.3,127c-1.1,1.5-0.5,2.7,1.4,2.7h24.1
		c1.8,0,4.2-1.2,5.3-2.7l92.3-127c1.1-1.5,0.5-2.7-1.4-2.7C821.5,54.8,797.5,54.8,797.5,54.8z M998.1,54.8c-1.8,0-4.2,1.2-5.3,2.7
		l-92.3,127c-1.1,1.5-0.5,2.7,1.4,2.7H926c1.8,0,4.2-1.2,5.3-2.7l92.3-127c1.1-1.5,0.5-2.7-1.4-2.7
		C1022.1,54.8,998.1,54.8,998.1,54.8z M857.9,183.8c0,1.8-1.5,3.3-3.3,3.3h-20.3c-1.8,0-3.3-1.5-3.3-3.3v-75.9
		c0-1.8,1.5-3.3,3.3-3.3h20.3c1.8,0,3.3,1.5,3.3,3.3V183.8L857.9,183.8z M878.6,84.5c0,1.8-1.5,3.3-3.3,3.3h-14.1
		c-1.8,0-3.3-1.5-3.3-3.3V58.1c0-1.8,1.5-3.3,3.3-3.3h14.1c1.8,0,3.3,1.5,3.3,3.3V84.5z M911.7,84.5c0,1.8-1.5,3.3-3.3,3.3h-14
		c-1.8,0-3.3-1.5-3.3-3.3V58.1c0-1.8,1.5-3.3,3.3-3.3h14c1.8,0,3.3,1.5,3.3,3.3L911.7,84.5L911.7,84.5z"/>
	<path class="st1" d="M1000.3,183.8c0,1.8-1.5,3.3-3.3,3.3h-20.3c-1.8,0-3.3-1.5-3.3-3.3v-59.4c0-1.8,1.5-3.3,3.3-3.3H997
		c1.8,0,3.3,1.5,3.3,3.3V183.8L1000.3,183.8z M610.5,187.1h-55c-1.8,0-2.4-1.2-1.4-2.7l14.1-19.5c1.1-1.5,3.4-2.7,5.3-2.7h37
		c12.8,0,25.4-5.9,33.5-17.1l27.7-38.2c1.1-1.5,3.4-2.7,5.3-2.7H701c1.8,0,2.4,1.2,1.4,2.7l-38.3,52.8
		C651.1,177.6,631,187.1,610.5,187.1L610.5,187.1z M316.1,111c-1.2,1.3-1.3,3.7-0.3,5.1l49.6,68.3c1.1,1.5,0.5,2.7-1.4,2.7h-26.5
		c-1.8,0-4.2-1.2-5.3-2.7l-36.7-50.6l-45.8,50.8c-1.2,1.3-3.7,2.5-5.5,2.5h-26.8c-1.8,0-2.3-1.1-1.1-2.5l94.6-105.1h-78.3
		c-1.8,0-2.4-1.2-1.4-2.7l14.1-19.5c1.1-1.5,3.4-2.7,5.3-2.7h102c1.5,0,3,0.5,4.2,1.6c2.5,2.3,2.8,6.2,0.5,8.8L316.1,111L316.1,111z
		 M463.5,184.4c-1.1,1.5-3.4,2.7-5.3,2.7h-24.1c-1.8,0-2.4-1.2-1.4-2.7l37.1-51.1h-32.5c-1.8,0-2.4-1.2-1.4-2.7l14.1-19.5
		c1.1-1.5,3.4-2.7,5.3-2.7h29.2c1.8,0,4.2-1.2,5.3-2.7L509,79.6h-56.7c-1.8,0-4.2,1.2-5.2,2.7l-38.2,52.5c-1.1,1.5-3.4,2.7-5.2,2.7
		h-24.1c-1.8,0-2.4-1.2-1.4-2.7l56.2-77.4c1.1-1.5,3.4-2.7,5.3-2.7h105.9c1.3,0,2.5,0.4,3.6,1.2c2.8,2,3.4,5.9,1.4,8.7L463.5,184.4
		L463.5,184.4z"/>
</g>
</svg>
